<mxfile host="app.diagrams.net" modified="2024-01-04T18:26:38.759Z" agent="Mozilla/5.0 (Windows NT 10.0; Win64; x64) AppleWebKit/537.36 (KHTML, like Gecko) Chrome/120.0.0.0 Safari/537.36" etag="9XJw1WS3W6EJTYoLzQGx" version="22.1.16" type="device">
  <diagram name="Pagina-1" id="0XGIiVqICvq5J2eeaqmL">
    <mxGraphModel dx="1434" dy="772" grid="0" gridSize="10" guides="1" tooltips="1" connect="1" arrows="1" fold="1" page="1" pageScale="1" pageWidth="827" pageHeight="1169" math="0" shadow="0">
      <root>
        <mxCell id="0" />
        <mxCell id="1" parent="0" />
        <mxCell id="Hw16J8x-1yyb94UdUWMJ-4" value="User&lt;br&gt;" style="shape=umlActor;verticalLabelPosition=bottom;verticalAlign=top;html=1;" parent="1" vertex="1">
          <mxGeometry x="54" y="61" width="30" height="60" as="geometry" />
        </mxCell>
        <mxCell id="Hw16J8x-1yyb94UdUWMJ-7" value="Interface:UI" style="html=1;whiteSpace=wrap;" parent="1" vertex="1">
          <mxGeometry x="164" y="66" width="110" height="50" as="geometry" />
        </mxCell>
        <mxCell id="Hw16J8x-1yyb94UdUWMJ-8" value="Proxy-Server" style="html=1;whiteSpace=wrap;" parent="1" vertex="1">
          <mxGeometry x="375" y="66" width="110" height="50" as="geometry" />
        </mxCell>
        <mxCell id="Hw16J8x-1yyb94UdUWMJ-9" value="FileController" style="html=1;whiteSpace=wrap;" parent="1" vertex="1">
          <mxGeometry x="588" y="66" width="110" height="50" as="geometry" />
        </mxCell>
        <mxCell id="Hw16J8x-1yyb94UdUWMJ-10" value="FileService" style="html=1;whiteSpace=wrap;" parent="1" vertex="1">
          <mxGeometry x="796" y="66" width="110" height="50" as="geometry" />
        </mxCell>
        <mxCell id="Hw16J8x-1yyb94UdUWMJ-13" style="edgeStyle=orthogonalEdgeStyle;rounded=0;orthogonalLoop=1;jettySize=auto;html=1;curved=0;" parent="1" target="Hw16J8x-1yyb94UdUWMJ-12" edge="1">
          <mxGeometry relative="1" as="geometry">
            <mxPoint x="190" y="169" as="targetPoint" />
            <mxPoint x="74" y="169.01724137931046" as="sourcePoint" />
            <Array as="points">
              <mxPoint x="173" y="169" />
              <mxPoint x="173" y="169" />
            </Array>
          </mxGeometry>
        </mxCell>
        <mxCell id="Hw16J8x-1yyb94UdUWMJ-11" value="" style="html=1;points=[[0,0,0,0,5],[0,1,0,0,-5],[1,0,0,0,5],[1,1,0,0,-5]];perimeter=orthogonalPerimeter;outlineConnect=0;targetShapes=umlLifeline;portConstraint=eastwest;newEdgeStyle={&quot;curved&quot;:0,&quot;rounded&quot;:0};" parent="1" vertex="1">
          <mxGeometry x="64" y="151" width="10" height="696" as="geometry" />
        </mxCell>
        <mxCell id="Hw16J8x-1yyb94UdUWMJ-17" style="edgeStyle=orthogonalEdgeStyle;rounded=0;orthogonalLoop=1;jettySize=auto;html=1;curved=0;" parent="1" edge="1">
          <mxGeometry relative="1" as="geometry">
            <mxPoint x="215" y="186" as="sourcePoint" />
            <mxPoint x="425" y="186" as="targetPoint" />
          </mxGeometry>
        </mxCell>
        <mxCell id="Hw16J8x-1yyb94UdUWMJ-61" style="edgeStyle=orthogonalEdgeStyle;rounded=0;orthogonalLoop=1;jettySize=auto;html=1;curved=0;" parent="1" edge="1">
          <mxGeometry relative="1" as="geometry">
            <mxPoint x="205" y="812.5142857142857" as="sourcePoint" />
            <mxPoint x="74" y="813.0285714285714" as="targetPoint" />
          </mxGeometry>
        </mxCell>
        <mxCell id="Hw16J8x-1yyb94UdUWMJ-12" value="" style="html=1;points=[[0,0,0,0,5],[0,1,0,0,-5],[1,0,0,0,5],[1,1,0,0,-5]];perimeter=orthogonalPerimeter;outlineConnect=0;targetShapes=umlLifeline;portConstraint=eastwest;newEdgeStyle={&quot;curved&quot;:0,&quot;rounded&quot;:0};" parent="1" vertex="1">
          <mxGeometry x="205" y="151" width="10" height="674" as="geometry" />
        </mxCell>
        <mxCell id="Hw16J8x-1yyb94UdUWMJ-14" value="chose file to upload" style="text;html=1;align=center;verticalAlign=middle;resizable=0;points=[];autosize=1;strokeColor=none;fillColor=none;" parent="1" vertex="1">
          <mxGeometry x="76" y="144" width="121" height="26" as="geometry" />
        </mxCell>
        <mxCell id="h6rnAEhNOsfNSNB2r7P0-3" style="edgeStyle=orthogonalEdgeStyle;rounded=0;orthogonalLoop=1;jettySize=auto;html=1;curved=0;" parent="1" source="Hw16J8x-1yyb94UdUWMJ-15" target="h6rnAEhNOsfNSNB2r7P0-2" edge="1">
          <mxGeometry relative="1" as="geometry">
            <Array as="points">
              <mxPoint x="587" y="388" />
              <mxPoint x="587" y="388" />
            </Array>
          </mxGeometry>
        </mxCell>
        <mxCell id="h6rnAEhNOsfNSNB2r7P0-46" style="edgeStyle=orthogonalEdgeStyle;rounded=0;orthogonalLoop=1;jettySize=auto;html=1;curved=0;" parent="1" edge="1">
          <mxGeometry relative="1" as="geometry">
            <mxPoint x="425" y="788" as="sourcePoint" />
            <mxPoint x="215" y="788" as="targetPoint" />
            <Array as="points">
              <mxPoint x="266" y="788" />
              <mxPoint x="266" y="788" />
            </Array>
          </mxGeometry>
        </mxCell>
        <mxCell id="Hw16J8x-1yyb94UdUWMJ-15" value="" style="html=1;points=[[0,0,0,0,5],[0,1,0,0,-5],[1,0,0,0,5],[1,1,0,0,-5]];perimeter=orthogonalPerimeter;outlineConnect=0;targetShapes=umlLifeline;portConstraint=eastwest;newEdgeStyle={&quot;curved&quot;:0,&quot;rounded&quot;:0};" parent="1" vertex="1">
          <mxGeometry x="425" y="151" width="10" height="644" as="geometry" />
        </mxCell>
        <mxCell id="Hw16J8x-1yyb94UdUWMJ-18" value="send(encryptedFile)" style="text;html=1;align=center;verticalAlign=middle;resizable=0;points=[];autosize=1;strokeColor=none;fillColor=none;" parent="1" vertex="1">
          <mxGeometry x="252" y="160" width="124" height="26" as="geometry" />
        </mxCell>
        <mxCell id="Hw16J8x-1yyb94UdUWMJ-24" style="edgeStyle=orthogonalEdgeStyle;rounded=0;orthogonalLoop=1;jettySize=auto;html=1;curved=0;" parent="1" edge="1">
          <mxGeometry relative="1" as="geometry">
            <mxPoint x="648" y="255" as="sourcePoint" />
            <mxPoint x="846" y="255" as="targetPoint" />
          </mxGeometry>
        </mxCell>
        <mxCell id="Hw16J8x-1yyb94UdUWMJ-29" style="edgeStyle=orthogonalEdgeStyle;rounded=0;orthogonalLoop=1;jettySize=auto;html=1;curved=0;" parent="1" edge="1">
          <mxGeometry relative="1" as="geometry">
            <mxPoint x="638" y="309" as="sourcePoint" />
            <mxPoint x="435" y="309" as="targetPoint" />
            <Array as="points">
              <mxPoint x="587" y="309" />
              <mxPoint x="587" y="309" />
            </Array>
          </mxGeometry>
        </mxCell>
        <mxCell id="Hw16J8x-1yyb94UdUWMJ-20" value="" style="html=1;points=[[0,0,0,0,5],[0,1,0,0,-5],[1,0,0,0,5],[1,1,0,0,-5]];perimeter=orthogonalPerimeter;outlineConnect=0;targetShapes=umlLifeline;portConstraint=eastwest;newEdgeStyle={&quot;curved&quot;:0,&quot;rounded&quot;:0};" parent="1" vertex="1">
          <mxGeometry x="638" y="191" width="10" height="135" as="geometry" />
        </mxCell>
        <mxCell id="Hw16J8x-1yyb94UdUWMJ-21" style="edgeStyle=orthogonalEdgeStyle;rounded=0;orthogonalLoop=1;jettySize=auto;html=1;curved=0;entryX=-0.005;entryY=0.5;entryDx=0;entryDy=0;entryPerimeter=0;" parent="1" edge="1">
          <mxGeometry relative="1" as="geometry">
            <mxPoint x="435" y="237" as="sourcePoint" />
            <mxPoint x="637.9499999999998" y="237" as="targetPoint" />
          </mxGeometry>
        </mxCell>
        <mxCell id="Hw16J8x-1yyb94UdUWMJ-22" value="send(TAG)" style="text;html=1;align=center;verticalAlign=middle;resizable=0;points=[];autosize=1;strokeColor=none;fillColor=none;" parent="1" vertex="1">
          <mxGeometry x="496" y="213" width="76" height="26" as="geometry" />
        </mxCell>
        <mxCell id="Hw16J8x-1yyb94UdUWMJ-23" value="" style="html=1;points=[[0,0,0,0,5],[0,1,0,0,-5],[1,0,0,0,5],[1,1,0,0,-5]];perimeter=orthogonalPerimeter;outlineConnect=0;targetShapes=umlLifeline;portConstraint=eastwest;newEdgeStyle={&quot;curved&quot;:0,&quot;rounded&quot;:0};" parent="1" vertex="1">
          <mxGeometry x="846" y="216" width="10" height="82" as="geometry" />
        </mxCell>
        <mxCell id="Hw16J8x-1yyb94UdUWMJ-25" value="exists(TAG)" style="text;html=1;align=center;verticalAlign=middle;resizable=0;points=[];autosize=1;strokeColor=none;fillColor=none;" parent="1" vertex="1">
          <mxGeometry x="705" y="233" width="80" height="26" as="geometry" />
        </mxCell>
        <mxCell id="Hw16J8x-1yyb94UdUWMJ-26" style="edgeStyle=orthogonalEdgeStyle;rounded=0;orthogonalLoop=1;jettySize=auto;html=1;curved=0;entryX=1.043;entryY=0.5;entryDx=0;entryDy=0;entryPerimeter=0;" parent="1" edge="1">
          <mxGeometry relative="1" as="geometry">
            <mxPoint x="846" y="292" as="sourcePoint" />
            <mxPoint x="648.4299999999998" y="292" as="targetPoint" />
          </mxGeometry>
        </mxCell>
        <mxCell id="Hw16J8x-1yyb94UdUWMJ-27" value="sendResponse(true)" style="text;html=1;align=center;verticalAlign=middle;resizable=0;points=[];autosize=1;strokeColor=none;fillColor=none;" parent="1" vertex="1">
          <mxGeometry x="690" y="270" width="127" height="26" as="geometry" />
        </mxCell>
        <mxCell id="Hw16J8x-1yyb94UdUWMJ-30" value="recieveResponse(true)" style="text;html=1;align=center;verticalAlign=middle;resizable=0;points=[];autosize=1;strokeColor=none;fillColor=none;" parent="1" vertex="1">
          <mxGeometry x="470" y="286" width="139" height="26" as="geometry" />
        </mxCell>
        <mxCell id="Hw16J8x-1yyb94UdUWMJ-62" value="display(file uploaded)" style="text;html=1;align=center;verticalAlign=middle;resizable=0;points=[];autosize=1;strokeColor=none;fillColor=none;" parent="1" vertex="1">
          <mxGeometry x="80" y="786" width="131" height="26" as="geometry" />
        </mxCell>
        <mxCell id="Hw16J8x-1yyb94UdUWMJ-75" value="" style="endArrow=classic;html=1;rounded=0;dashed=1;" parent="1" edge="1">
          <mxGeometry width="50" height="50" relative="1" as="geometry">
            <mxPoint x="435" y="416" as="sourcePoint" />
            <mxPoint x="434.9999999999998" y="437" as="targetPoint" />
            <Array as="points">
              <mxPoint x="469" y="416" />
              <mxPoint x="469" y="437" />
            </Array>
          </mxGeometry>
        </mxCell>
        <mxCell id="Hw16J8x-1yyb94UdUWMJ-76" value="generateChalllenges(encryptedFile)" style="text;html=1;align=center;verticalAlign=middle;resizable=0;points=[];autosize=1;strokeColor=none;fillColor=none;" parent="1" vertex="1">
          <mxGeometry x="1096.5" y="353" width="208" height="26" as="geometry" />
        </mxCell>
        <mxCell id="Hw16J8x-1yyb94UdUWMJ-86" value="" style="endArrow=none;dashed=1;html=1;rounded=0;entryX=0.5;entryY=1;entryDx=0;entryDy=0;" parent="1" target="Hw16J8x-1yyb94UdUWMJ-10" edge="1">
          <mxGeometry width="50" height="50" relative="1" as="geometry">
            <mxPoint x="851" y="218" as="sourcePoint" />
            <mxPoint x="850.58" y="151" as="targetPoint" />
          </mxGeometry>
        </mxCell>
        <mxCell id="Hw16J8x-1yyb94UdUWMJ-87" value="" style="endArrow=none;dashed=1;html=1;rounded=0;entryX=0.5;entryY=1;entryDx=0;entryDy=0;" parent="1" target="Hw16J8x-1yyb94UdUWMJ-9" edge="1">
          <mxGeometry width="50" height="50" relative="1" as="geometry">
            <mxPoint x="643" y="191" as="sourcePoint" />
            <mxPoint x="642.58" y="151" as="targetPoint" />
          </mxGeometry>
        </mxCell>
        <mxCell id="Hw16J8x-1yyb94UdUWMJ-89" value="" style="endArrow=none;dashed=1;html=1;rounded=0;entryX=0.5;entryY=1;entryDx=0;entryDy=0;" parent="1" edge="1">
          <mxGeometry width="50" height="50" relative="1" as="geometry">
            <mxPoint x="430" y="152" as="sourcePoint" />
            <mxPoint x="429.8" y="116" as="targetPoint" />
          </mxGeometry>
        </mxCell>
        <mxCell id="Hw16J8x-1yyb94UdUWMJ-90" value="" style="endArrow=none;dashed=1;html=1;rounded=0;entryX=0.5;entryY=1;entryDx=0;entryDy=0;" parent="1" edge="1">
          <mxGeometry width="50" height="50" relative="1" as="geometry">
            <mxPoint x="211.2" y="152" as="sourcePoint" />
            <mxPoint x="211" y="116" as="targetPoint" />
          </mxGeometry>
        </mxCell>
        <mxCell id="h6rnAEhNOsfNSNB2r7P0-1" value="" style="endArrow=none;dashed=1;html=1;rounded=0;entryX=0.5;entryY=1;entryDx=0;entryDy=0;" parent="1" edge="1">
          <mxGeometry width="50" height="50" relative="1" as="geometry">
            <mxPoint x="643" y="373" as="sourcePoint" />
            <mxPoint x="642.66" y="326" as="targetPoint" />
          </mxGeometry>
        </mxCell>
        <mxCell id="h6rnAEhNOsfNSNB2r7P0-7" style="edgeStyle=orthogonalEdgeStyle;rounded=0;orthogonalLoop=1;jettySize=auto;html=1;curved=0;" parent="1" edge="1">
          <mxGeometry relative="1" as="geometry">
            <mxPoint x="648" y="408.5" as="sourcePoint" />
            <mxPoint x="846" y="408.5" as="targetPoint" />
          </mxGeometry>
        </mxCell>
        <mxCell id="h6rnAEhNOsfNSNB2r7P0-12" style="edgeStyle=orthogonalEdgeStyle;rounded=0;orthogonalLoop=1;jettySize=auto;html=1;curved=0;" parent="1" edge="1">
          <mxGeometry relative="1" as="geometry">
            <mxPoint x="638" y="470.4999999999999" as="sourcePoint" />
            <mxPoint x="435" y="470.4999999999999" as="targetPoint" />
            <Array as="points">
              <mxPoint x="486" y="470" />
              <mxPoint x="486" y="470" />
            </Array>
          </mxGeometry>
        </mxCell>
        <mxCell id="h6rnAEhNOsfNSNB2r7P0-2" value="" style="html=1;points=[[0,0,0,0,5],[0,1,0,0,-5],[1,0,0,0,5],[1,1,0,0,-5]];perimeter=orthogonalPerimeter;outlineConnect=0;targetShapes=umlLifeline;portConstraint=eastwest;newEdgeStyle={&quot;curved&quot;:0,&quot;rounded&quot;:0};" parent="1" vertex="1">
          <mxGeometry x="638" y="374" width="10" height="115" as="geometry" />
        </mxCell>
        <mxCell id="h6rnAEhNOsfNSNB2r7P0-4" value="getChallenge(TAG)" style="text;html=1;align=center;verticalAlign=middle;resizable=0;points=[];autosize=1;strokeColor=none;fillColor=none;" parent="1" vertex="1">
          <mxGeometry x="471" y="361" width="121" height="26" as="geometry" />
        </mxCell>
        <mxCell id="h6rnAEhNOsfNSNB2r7P0-5" value="" style="endArrow=none;dashed=1;html=1;rounded=0;entryX=0.5;entryY=1;entryDx=0;entryDy=0;" parent="1" edge="1">
          <mxGeometry width="50" height="50" relative="1" as="geometry">
            <mxPoint x="851" y="373" as="sourcePoint" />
            <mxPoint x="850.71" y="298" as="targetPoint" />
          </mxGeometry>
        </mxCell>
        <mxCell id="h6rnAEhNOsfNSNB2r7P0-10" style="edgeStyle=orthogonalEdgeStyle;rounded=0;orthogonalLoop=1;jettySize=auto;html=1;curved=0;" parent="1" source="h6rnAEhNOsfNSNB2r7P0-6" target="h6rnAEhNOsfNSNB2r7P0-2" edge="1">
          <mxGeometry relative="1" as="geometry">
            <Array as="points">
              <mxPoint x="698" y="441" />
              <mxPoint x="698" y="441" />
            </Array>
          </mxGeometry>
        </mxCell>
        <mxCell id="h6rnAEhNOsfNSNB2r7P0-6" value="" style="html=1;points=[[0,0,0,0,5],[0,1,0,0,-5],[1,0,0,0,5],[1,1,0,0,-5]];perimeter=orthogonalPerimeter;outlineConnect=0;targetShapes=umlLifeline;portConstraint=eastwest;newEdgeStyle={&quot;curved&quot;:0,&quot;rounded&quot;:0};" parent="1" vertex="1">
          <mxGeometry x="846" y="374" width="10" height="85" as="geometry" />
        </mxCell>
        <mxCell id="h6rnAEhNOsfNSNB2r7P0-9" value="getChallenge(TAG)" style="text;html=1;align=center;verticalAlign=middle;resizable=0;points=[];autosize=1;strokeColor=none;fillColor=none;" parent="1" vertex="1">
          <mxGeometry x="687" y="382" width="121" height="26" as="geometry" />
        </mxCell>
        <mxCell id="h6rnAEhNOsfNSNB2r7P0-11" value="sendChallenge()" style="text;html=1;align=center;verticalAlign=middle;resizable=0;points=[];autosize=1;strokeColor=none;fillColor=none;" parent="1" vertex="1">
          <mxGeometry x="692" y="415" width="106" height="26" as="geometry" />
        </mxCell>
        <mxCell id="h6rnAEhNOsfNSNB2r7P0-13" value="recieveChallenge()" style="text;html=1;align=center;verticalAlign=middle;resizable=0;points=[];autosize=1;strokeColor=none;fillColor=none;" parent="1" vertex="1">
          <mxGeometry x="480" y="447" width="119" height="26" as="geometry" />
        </mxCell>
        <mxCell id="h6rnAEhNOsfNSNB2r7P0-14" value="generateMT()" style="text;html=1;align=center;verticalAlign=middle;resizable=0;points=[];autosize=1;strokeColor=none;fillColor=none;" parent="1" vertex="1">
          <mxGeometry x="461" y="413" width="91" height="26" as="geometry" />
        </mxCell>
        <mxCell id="h6rnAEhNOsfNSNB2r7P0-16" value="" style="endArrow=classic;html=1;rounded=0;" parent="1" edge="1">
          <mxGeometry width="50" height="50" relative="1" as="geometry">
            <mxPoint x="435" y="533" as="sourcePoint" />
            <mxPoint x="434.9999999999998" y="554" as="targetPoint" />
            <Array as="points">
              <mxPoint x="469" y="533" />
              <mxPoint x="469" y="554" />
            </Array>
          </mxGeometry>
        </mxCell>
        <mxCell id="h6rnAEhNOsfNSNB2r7P0-17" value="generateAnswer()" style="text;html=1;align=center;verticalAlign=middle;resizable=0;points=[];autosize=1;strokeColor=none;fillColor=none;" parent="1" vertex="1">
          <mxGeometry x="461" y="529" width="113" height="26" as="geometry" />
        </mxCell>
        <mxCell id="h6rnAEhNOsfNSNB2r7P0-25" style="edgeStyle=orthogonalEdgeStyle;rounded=0;orthogonalLoop=1;jettySize=auto;html=1;curved=0;" parent="1" edge="1">
          <mxGeometry relative="1" as="geometry">
            <mxPoint x="647.9999999999999" y="633.0114942528736" as="sourcePoint" />
            <mxPoint x="846" y="633.0114942528736" as="targetPoint" />
            <Array as="points">
              <mxPoint x="698" y="633" />
              <mxPoint x="698" y="633" />
            </Array>
          </mxGeometry>
        </mxCell>
        <mxCell id="h6rnAEhNOsfNSNB2r7P0-29" style="edgeStyle=orthogonalEdgeStyle;rounded=0;orthogonalLoop=1;jettySize=auto;html=1;curved=0;" parent="1" edge="1">
          <mxGeometry relative="1" as="geometry">
            <mxPoint x="638" y="695.5" as="sourcePoint" />
            <mxPoint x="435" y="695.5" as="targetPoint" />
            <Array as="points">
              <mxPoint x="486" y="695" />
              <mxPoint x="486" y="695" />
            </Array>
          </mxGeometry>
        </mxCell>
        <mxCell id="h6rnAEhNOsfNSNB2r7P0-18" value="" style="html=1;points=[[0,0,0,0,5],[0,1,0,0,-5],[1,0,0,0,5],[1,1,0,0,-5]];perimeter=orthogonalPerimeter;outlineConnect=0;targetShapes=umlLifeline;portConstraint=eastwest;newEdgeStyle={&quot;curved&quot;:0,&quot;rounded&quot;:0};" parent="1" vertex="1">
          <mxGeometry x="638" y="595" width="10" height="115" as="geometry" />
        </mxCell>
        <mxCell id="h6rnAEhNOsfNSNB2r7P0-19" value="" style="endArrow=none;dashed=1;html=1;rounded=0;entryX=0.5;entryY=1;entryDx=0;entryDy=0;exitX=0.471;exitY=0;exitDx=0;exitDy=0;exitPerimeter=0;" parent="1" source="h6rnAEhNOsfNSNB2r7P0-18" edge="1">
          <mxGeometry width="50" height="50" relative="1" as="geometry">
            <mxPoint x="643.05" y="536" as="sourcePoint" />
            <mxPoint x="642.7099999999999" y="489" as="targetPoint" />
          </mxGeometry>
        </mxCell>
        <mxCell id="h6rnAEhNOsfNSNB2r7P0-21" value="" style="endArrow=classic;html=1;rounded=0;" parent="1" edge="1">
          <mxGeometry width="50" height="50" relative="1" as="geometry">
            <mxPoint x="435" y="610" as="sourcePoint" />
            <mxPoint x="637" y="611" as="targetPoint" />
          </mxGeometry>
        </mxCell>
        <mxCell id="h6rnAEhNOsfNSNB2r7P0-22" value="sendAnswer()" style="text;html=1;align=center;verticalAlign=middle;resizable=0;points=[];autosize=1;strokeColor=none;fillColor=none;" parent="1" vertex="1">
          <mxGeometry x="471.5" y="589" width="92" height="26" as="geometry" />
        </mxCell>
        <mxCell id="h6rnAEhNOsfNSNB2r7P0-27" style="edgeStyle=orthogonalEdgeStyle;rounded=0;orthogonalLoop=1;jettySize=auto;html=1;curved=0;" parent="1" edge="1">
          <mxGeometry relative="1" as="geometry">
            <mxPoint x="846" y="673.5238095238095" as="sourcePoint" />
            <mxPoint x="648" y="673.5238095238095" as="targetPoint" />
            <Array as="points">
              <mxPoint x="697" y="674" />
              <mxPoint x="697" y="674" />
            </Array>
          </mxGeometry>
        </mxCell>
        <mxCell id="h6rnAEhNOsfNSNB2r7P0-23" value="" style="html=1;points=[[0,0,0,0,5],[0,1,0,0,-5],[1,0,0,0,5],[1,1,0,0,-5]];perimeter=orthogonalPerimeter;outlineConnect=0;targetShapes=umlLifeline;portConstraint=eastwest;newEdgeStyle={&quot;curved&quot;:0,&quot;rounded&quot;:0};" parent="1" vertex="1">
          <mxGeometry x="846" y="604" width="10" height="85" as="geometry" />
        </mxCell>
        <mxCell id="h6rnAEhNOsfNSNB2r7P0-24" value="" style="endArrow=none;dashed=1;html=1;rounded=0;entryX=0.5;entryY=1;entryDx=0;entryDy=0;" parent="1" source="h6rnAEhNOsfNSNB2r7P0-23" edge="1">
          <mxGeometry width="50" height="50" relative="1" as="geometry">
            <mxPoint x="851.05" y="565" as="sourcePoint" />
            <mxPoint x="850.76" y="459" as="targetPoint" />
          </mxGeometry>
        </mxCell>
        <mxCell id="h6rnAEhNOsfNSNB2r7P0-26" value="verifyAnswer()" style="text;html=1;align=center;verticalAlign=middle;resizable=0;points=[];autosize=1;strokeColor=none;fillColor=none;" parent="1" vertex="1">
          <mxGeometry x="695" y="609" width="95" height="26" as="geometry" />
        </mxCell>
        <mxCell id="h6rnAEhNOsfNSNB2r7P0-28" value="sendOkStatus()" style="text;html=1;align=center;verticalAlign=middle;resizable=0;points=[];autosize=1;strokeColor=none;fillColor=none;" parent="1" vertex="1">
          <mxGeometry x="684" y="649" width="101" height="26" as="geometry" />
        </mxCell>
        <mxCell id="h6rnAEhNOsfNSNB2r7P0-30" value="recieveOkStatus()" style="text;html=1;align=center;verticalAlign=middle;resizable=0;points=[];autosize=1;strokeColor=none;fillColor=none;" parent="1" vertex="1">
          <mxGeometry x="469" y="675" width="114" height="26" as="geometry" />
        </mxCell>
        <mxCell id="h6rnAEhNOsfNSNB2r7P0-31" value="" style="endArrow=none;dashed=1;html=1;rounded=0;" parent="1" edge="1">
          <mxGeometry width="50" height="50" relative="1" as="geometry">
            <mxPoint x="430" y="867" as="sourcePoint" />
            <mxPoint x="430" y="795" as="targetPoint" />
          </mxGeometry>
        </mxCell>
        <mxCell id="h6rnAEhNOsfNSNB2r7P0-35" value="" style="endArrow=none;dashed=1;html=1;rounded=0;entryX=0.5;entryY=1;entryDx=0;entryDy=0;" parent="1" edge="1">
          <mxGeometry width="50" height="50" relative="1" as="geometry">
            <mxPoint x="642.71" y="867" as="sourcePoint" />
            <mxPoint x="642.71" y="710" as="targetPoint" />
          </mxGeometry>
        </mxCell>
        <mxCell id="h6rnAEhNOsfNSNB2r7P0-39" value="" style="endArrow=none;dashed=1;html=1;rounded=0;entryX=0.5;entryY=1;entryDx=0;entryDy=0;" parent="1" source="bY-KS4NiK5goRRZ9f-gb-1" edge="1">
          <mxGeometry width="50" height="50" relative="1" as="geometry">
            <mxPoint x="850.71" y="882" as="sourcePoint" />
            <mxPoint x="850.71" y="689" as="targetPoint" />
          </mxGeometry>
        </mxCell>
        <mxCell id="h6rnAEhNOsfNSNB2r7P0-47" value="sendOkStatus()" style="text;html=1;align=center;verticalAlign=middle;resizable=0;points=[];autosize=1;strokeColor=none;fillColor=none;" parent="1" vertex="1">
          <mxGeometry x="264" y="763" width="101" height="26" as="geometry" />
        </mxCell>
        <mxCell id="AiXfp6NO9Fj_1Gvs_gj9-2" value="" style="endArrow=classic;html=1;rounded=0;" parent="1" edge="1">
          <mxGeometry width="50" height="50" relative="1" as="geometry">
            <mxPoint x="435" y="199" as="sourcePoint" />
            <mxPoint x="434.9999999999998" y="220" as="targetPoint" />
            <Array as="points">
              <mxPoint x="469" y="199" />
              <mxPoint x="469" y="220" />
            </Array>
          </mxGeometry>
        </mxCell>
        <mxCell id="AiXfp6NO9Fj_1Gvs_gj9-3" value="generateTag()" style="text;html=1;align=center;verticalAlign=middle;resizable=0;points=[];autosize=1;strokeColor=none;fillColor=none;" parent="1" vertex="1">
          <mxGeometry x="469" y="195" width="93" height="26" as="geometry" />
        </mxCell>
        <mxCell id="bY-KS4NiK5goRRZ9f-gb-2" value="" style="endArrow=none;dashed=1;html=1;rounded=0;entryX=0.5;entryY=1;entryDx=0;entryDy=0;" edge="1" parent="1" target="bY-KS4NiK5goRRZ9f-gb-1">
          <mxGeometry width="50" height="50" relative="1" as="geometry">
            <mxPoint x="851" y="859" as="sourcePoint" />
            <mxPoint x="850.71" y="689" as="targetPoint" />
          </mxGeometry>
        </mxCell>
        <mxCell id="bY-KS4NiK5goRRZ9f-gb-1" value="" style="html=1;points=[[0,0,0,0,5],[0,1,0,0,-5],[1,0,0,0,5],[1,1,0,0,-5]];perimeter=orthogonalPerimeter;outlineConnect=0;targetShapes=umlLifeline;portConstraint=eastwest;newEdgeStyle={&quot;curved&quot;:0,&quot;rounded&quot;:0};" vertex="1" parent="1">
          <mxGeometry x="846" y="706" width="10" height="85" as="geometry" />
        </mxCell>
        <mxCell id="bY-KS4NiK5goRRZ9f-gb-3" value="" style="endArrow=classic;html=1;rounded=0;dashed=1;" edge="1" parent="1">
          <mxGeometry width="50" height="50" relative="1" as="geometry">
            <mxPoint x="856" y="734" as="sourcePoint" />
            <mxPoint x="855.9999999999998" y="755" as="targetPoint" />
            <Array as="points">
              <mxPoint x="890" y="734" />
              <mxPoint x="890" y="755" />
            </Array>
          </mxGeometry>
        </mxCell>
        <mxCell id="bY-KS4NiK5goRRZ9f-gb-4" value="saveReferenceFileToUser()" style="text;html=1;align=center;verticalAlign=middle;resizable=0;points=[];autosize=1;strokeColor=none;fillColor=none;" vertex="1" parent="1">
          <mxGeometry x="885" y="732" width="164" height="26" as="geometry" />
        </mxCell>
      </root>
    </mxGraphModel>
  </diagram>
</mxfile>
